<svg width="31" height="31" viewBox="0 0 31 31" fill="none" xmlns="http://www.w3.org/2000/svg">
<path d="M29.0739 15.3779C29.0739 22.6759 23.1575 28.5989 15.8529 28.5989C8.54835 28.5989 2.63196 22.6759 2.63196 15.3779C2.63196 8.07331 8.54835 2.15692 15.8529 2.15692C23.1575 2.15692 29.0739 8.07331 29.0739 15.3779Z" fill="#283544"/>
<path d="M22.0499 12.0324C21.9777 12.0745 20.2603 12.9627 20.2603 14.9321C20.3413 17.178 22.4276 17.9656 22.4634 17.9656C22.4276 18.0077 22.1484 19.0385 21.3214 20.1191C20.665 21.0499 19.9365 21.9884 18.8303 21.9884C17.778 21.9884 17.4002 21.3681 16.1861 21.3681C14.8822 21.3681 14.5132 21.9884 13.5149 21.9884C12.4086 21.9884 11.6262 20.9997 10.934 20.0776C10.0348 18.8707 9.27055 16.9768 9.24357 15.1583C9.22539 14.1947 9.42364 13.2475 9.92691 12.4429C10.6372 11.3197 11.9054 10.5572 13.2902 10.5321C14.3513 10.4987 15.2957 11.2109 15.9432 11.2109C16.5638 11.2109 17.724 10.5321 19.0367 10.5321C19.6034 10.5326 21.1143 10.6917 22.0499 12.0324ZM15.8535 10.3397C15.6646 9.45968 16.1861 8.57968 16.6717 8.01835C17.2923 7.33949 18.2725 6.87872 19.1177 6.87872C19.1717 7.75872 18.8297 8.62177 18.2185 9.25034C17.6701 9.92919 16.7257 10.4402 15.8535 10.3397Z" fill="white"/>
</svg>
