<svg width="18" height="18" viewBox="0 0 18 18" fill="none" xmlns="http://www.w3.org/2000/svg">
<path d="M15.8904 13.9151C15.8904 14.1742 15.8329 14.4406 15.7105 14.6997C15.5881 14.9589 15.4297 15.2036 15.221 15.434C14.8682 15.8227 14.4795 16.1035 14.0404 16.2835C13.6085 16.4634 13.1405 16.557 12.6366 16.557C11.9024 16.557 11.1177 16.3842 10.2899 16.0315C9.46201 15.6788 8.63416 15.2036 7.81351 14.6062C6.98566 14.0015 6.201 13.332 5.45234 12.5905C4.71087 11.8419 4.04139 11.0572 3.4439 10.2365C2.85361 9.41589 2.37849 8.59524 2.03295 7.78179C1.68742 6.96114 1.51465 6.17648 1.51465 5.42782C1.51465 4.9383 1.60103 4.47039 1.7738 4.03847C1.94657 3.59935 2.22012 3.19622 2.60165 2.83628C3.06237 2.38277 3.56628 2.15961 4.09898 2.15961C4.30054 2.15961 4.50211 2.2028 4.68208 2.28918C4.86924 2.37557 5.03481 2.50514 5.16439 2.69231L6.83449 5.04628C6.96406 5.22625 7.05765 5.39182 7.12243 5.55019C7.18722 5.70137 7.22322 5.85254 7.22322 5.98931C7.22322 6.16208 7.17283 6.33485 7.07204 6.50042C6.97846 6.66599 6.84169 6.83876 6.66892 7.01153L6.12182 7.58023C6.04263 7.65941 6.00664 7.753 6.00664 7.86817C6.00664 7.92576 6.01384 7.97615 6.02823 8.03374C6.04983 8.09133 6.07142 8.13453 6.08582 8.17772C6.2154 8.41528 6.43856 8.72482 6.7553 9.09915C7.07924 9.47348 7.42478 9.85502 7.79911 10.2365C8.18784 10.6181 8.56217 10.9708 8.94371 11.2948C9.31804 11.6115 9.62758 11.8275 9.87234 11.957C9.90833 11.9714 9.95152 11.993 10.0019 12.0146C10.0595 12.0362 10.1171 12.0434 10.1819 12.0434C10.3043 12.0434 10.3978 12.0002 10.477 11.921L11.0241 11.3811C11.2041 11.2012 11.3769 11.0644 11.5424 10.978C11.708 10.8772 11.8736 10.8268 12.0535 10.8268C12.1903 10.8268 12.3343 10.8556 12.4927 10.9204C12.651 10.9852 12.8166 11.0788 12.9966 11.2012L15.3793 12.8929C15.5665 13.0224 15.6961 13.1736 15.7753 13.3536C15.8473 13.5335 15.8904 13.7135 15.8904 13.9151Z" stroke="#505050" stroke-miterlimit="10"/>
<path d="M13.3926 7.19868C13.3926 6.76676 13.0543 6.10448 12.5503 5.56458C12.0896 5.06787 11.4777 4.67914 10.873 4.67914" stroke="#505050" stroke-linecap="round" stroke-linejoin="round"/>
<path d="M15.9121 7.1987C15.9121 4.4128 13.6589 2.15961 10.873 2.15961" stroke="#505050" stroke-linecap="round" stroke-linejoin="round"/>
</svg>
