<svg width="20" height="20" viewBox="0 0 20 20" fill="none" xmlns="http://www.w3.org/2000/svg">
<path d="M16.25 10.4166C16.25 9.26659 17.1833 8.33325 18.3333 8.33325V7.49992C18.3333 4.16659 17.5 3.33325 14.1667 3.33325H5.83333C2.5 3.33325 1.66667 4.16659 1.66667 7.49992V7.91659C2.81667 7.91659 3.75 8.84992 3.75 9.99992C3.75 11.1499 2.81667 12.0833 1.66667 12.0833V12.4999C1.66667 15.8333 2.5 16.6666 5.83333 16.6666H14.1667C17.5 16.6666 18.3333 15.8333 18.3333 12.4999C17.1833 12.4999 16.25 11.5666 16.25 10.4166Z" stroke="#505050" stroke-width="1.5" stroke-linecap="round" stroke-linejoin="round"/>
<path d="M7.5 12.2917L12.5 7.29175" stroke="#505050" stroke-width="1.5" stroke-linecap="round" stroke-linejoin="round"/>
<path d="M12.4954 12.2917H12.5029" stroke="#505050" stroke-width="1.5" stroke-linecap="round" stroke-linejoin="round"/>
<path d="M7.49542 7.70841H7.50291" stroke="#505050" stroke-width="1.5" stroke-linecap="round" stroke-linejoin="round"/>
</svg>
