<svg width="20" height="20" viewBox="0 0 20 20" fill="none" xmlns="http://www.w3.org/2000/svg">
<path d="M17.75 9.03322C18.075 9.03322 18.3333 8.77489 18.3333 8.44989V7.67489C18.3333 4.25822 17.2917 3.21655 13.875 3.21655H6.125C2.70833 3.21655 1.66667 4.25822 1.66667 7.67489V8.06655C1.66667 8.39155 1.925 8.64989 2.25 8.64989C3 8.64989 3.60833 9.25822 3.60833 10.0082C3.60833 10.7582 3 11.3582 2.25 11.3582C1.925 11.3582 1.66667 11.6166 1.66667 11.9416V12.3332C1.66667 15.7499 2.70833 16.7916 6.125 16.7916H13.875C17.2917 16.7916 18.3333 15.7499 18.3333 12.3332C18.3333 12.0082 18.075 11.7499 17.75 11.7499C17 11.7499 16.3917 11.1416 16.3917 10.3916C16.3917 9.64155 17 9.03322 17.75 9.03322ZM7.5 7.39989C7.95833 7.39989 8.33333 7.77489 8.33333 8.23322C8.33333 8.69155 7.96667 9.06655 7.5 9.06655C7.04167 9.06655 6.66667 8.69155 6.66667 8.23322C6.66667 7.77489 7.03333 7.39989 7.5 7.39989ZM12.5 13.2332C12.0333 13.2332 11.6583 12.8582 11.6583 12.3999C11.6583 11.9416 12.0333 11.5666 12.4917 11.5666C12.95 11.5666 13.325 11.9416 13.325 12.3999C13.325 12.8582 12.9667 13.2332 12.5 13.2332ZM13.25 7.89989L7.64167 13.5082C7.51667 13.6332 7.35834 13.6916 7.2 13.6916C7.04167 13.6916 6.88333 13.6332 6.75833 13.5082C6.51667 13.2666 6.51667 12.8666 6.75833 12.6249L12.3667 7.01655C12.6083 6.77489 13.0083 6.77489 13.25 7.01655C13.4917 7.25822 13.4917 7.65822 13.25 7.89989Z" fill="#246BFD"/>
</svg>
