<svg width="350" height="258" viewBox="0 0 350 258" fill="none" xmlns="http://www.w3.org/2000/svg">
<g clip-path="url(#clip0_1335_2642)">
<path opacity="0.1" d="M3.76721 123.695C9.29393 145.04 20.9837 163.491 39.457 172.436C77.8609 191.024 164.472 181.437 229.112 170.432C262.549 164.741 291.939 149.033 313.289 126.928L3.76721 123.695Z" fill="url(#paint0_linear_1335_2642)"/>
<path opacity="0.1" d="M342.739 23.221H307.272C305.589 23.221 304.208 21.9746 304.208 20.4515C304.208 18.9285 305.589 17.6789 307.272 17.6789H313.407C311.72 17.6789 310.343 16.4324 310.343 14.9062C310.343 13.38 311.72 12.1367 313.407 12.1367H309.028C307.342 12.1367 305.961 10.8903 305.961 9.36408C305.961 7.83785 307.342 6.5946 309.028 6.5946H327.54C323.432 4.86805 318.631 3.64071 313.098 2.99524C262.619 -2.86486 244.598 1.01114 238.241 4.99524C230.317 10.023 221.515 13.5117 212.297 15.2782C181.153 21.0874 122.911 28.0763 70.1228 13.0525C43.886 5.57075 24.385 18.1971 12.6984 39.3037H348.899C348.46 33.1701 347.146 27.504 344.734 22.5469C344.163 22.9876 343.461 23.2249 342.739 23.221Z" fill="url(#paint1_linear_1335_2642)"/>
<path opacity="0.1" d="M0.760441 79.1415C-0.601843 91.5554 -0.138763 104.102 2.13496 116.382L313.527 126.68C322.099 117.796 329.382 107.754 335.163 96.849L0.760441 79.1415ZM123.92 105.707H117.789C119.475 105.707 120.856 106.957 120.856 108.48C120.856 110.003 119.475 111.25 117.789 111.25H82.3217C80.6385 111.25 79.2576 110.003 79.2576 108.48C79.2576 106.957 80.6385 105.707 82.3217 105.707H88.4561C86.7698 105.707 85.3921 104.461 85.3921 102.938C85.3921 101.415 86.7698 100.165 88.4561 100.165H84.0748C82.3885 100.165 81.0076 98.9189 81.0076 97.3959C81.0076 95.8728 82.3885 94.6232 84.0748 94.6232H119.542C121.228 94.6232 122.606 95.8696 122.606 97.3959C122.606 98.9221 121.228 100.165 119.542 100.165H123.92C125.606 100.165 126.984 101.412 126.984 102.938C126.984 104.464 125.606 105.707 123.92 105.707Z" fill="url(#paint2_linear_1335_2642)"/>
<path opacity="0.1" d="M348.912 39.4944L8.94712 46.9666C4.81083 56.5787 2.06815 67.4467 0.804993 78.7091H342.956C345.182 72.1199 346.834 65.3507 347.894 58.477C348.915 51.8601 349.322 45.4595 348.912 39.4944ZM69.8301 63.9937H63.6988C65.3852 63.9937 66.7661 65.2433 66.7661 66.7663C66.7661 68.2894 65.3852 69.539 63.6988 69.539H28.2318C26.5486 69.539 25.1677 68.2894 25.1677 66.7663C25.1677 65.2433 26.5486 63.9937 28.2318 63.9937H34.3662C32.6799 63.9937 31.3022 62.7472 31.3022 61.2242C31.3022 59.7011 32.6799 58.4515 34.3662 58.4515H29.9849C28.2986 58.4515 26.9177 57.2051 26.9177 55.682C26.9177 54.159 28.2986 52.9094 29.9849 52.9094H65.452C67.1383 52.9094 68.516 54.1558 68.516 55.682C68.516 57.2083 67.1383 58.4515 65.452 58.4515H69.8301C71.5164 58.4515 72.8941 59.7011 72.8941 61.2242C72.8941 62.7472 71.5164 63.9937 69.8301 63.9937Z" fill="url(#paint3_linear_1335_2642)"/>
<path opacity="0.1" d="M173.431 248.356C251.976 248.356 315.65 242.502 315.65 235.281C315.65 228.06 251.976 222.207 173.431 222.207C94.8864 222.207 31.2131 228.06 31.2131 235.281C31.2131 242.502 94.8864 248.356 173.431 248.356Z" fill="url(#paint4_linear_1335_2642)"/>
<path d="M318.38 127.288C318.378 127.266 318.378 127.243 318.38 127.221C318.38 127.186 318.38 127.154 318.38 127.122C318.316 126.758 318.178 126.411 317.976 126.102C317.248 124.937 316.233 123.978 315.029 123.316C312.929 122.165 310.043 121.673 309.203 119.475C308.946 118.795 308.939 118.054 308.812 117.342C308.589 116.232 308.079 115.2 307.331 114.35C306.583 113.5 305.625 112.862 304.552 112.499C303.553 112.165 302.474 112.073 301.504 111.66C299.334 110.738 298.188 108.464 297.218 106.363C295.962 103.649 294.706 100.935 293.451 98.2194C292.496 98.6995 291.262 98.4738 290.367 97.8728C289.506 97.2319 288.82 96.3844 288.372 95.4086C287.078 92.8967 286.521 90.0509 285 87.6598C283.479 85.2687 280.44 83.38 277.755 84.4197C277.231 84.6815 276.688 84.9057 276.132 85.0906C273.832 85.628 271.286 83.0016 269.317 84.2767C268.99 84.4863 268.723 84.7779 268.544 85.1224C268.542 85.1013 268.542 85.08 268.544 85.0588C268.287 85.5761 268.144 86.1419 268.124 86.7186C268.124 86.8363 268.124 86.9507 268.124 87.062C268.124 87.0811 268.124 87.1002 268.124 87.1193C268.124 87.5771 268.152 88.0414 268.159 88.5056C268.166 88.8955 268.136 89.2851 268.07 89.6693V89.6375C268.032 89.8538 267.977 90.0665 267.904 90.2735C267.392 91.6471 265.973 92.5469 265.308 93.8379V93.7743C265.233 93.9147 265.168 94.0603 265.114 94.2099C264.996 94.5483 264.934 94.9039 264.932 95.2624C264.875 97.6884 267.449 99.9714 267.748 102.576C267.961 104.42 268.385 105.011 269.953 106.054L270.297 106.283C270.16 106.283 270.02 106.302 269.864 106.305C269.803 106.306 269.743 106.313 269.683 106.324C269.406 106.248 269.116 106.234 268.833 106.284C268.55 106.333 268.282 106.445 268.047 106.611C266.845 107.564 264 106.83 262.737 106.611C261.474 106.391 257.147 106.983 256.542 109.38C255.938 111.777 254.9 116.725 254.9 116.725C254.9 116.725 254.9 119.863 254.515 120.448C254.501 120.489 254.501 120.534 254.515 120.576C254.515 121.456 254.547 126.75 253.694 128.114C253.484 128.432 253.5 129.135 253.656 130C252.759 131.154 251.916 132.502 252.065 133.386C252.339 135.196 256.011 140.884 261.273 137.838C261.273 137.838 264.267 132.366 260.5 129.456L260.663 128.82C261.802 130.219 262.645 131.224 262.645 131.224C262.645 131.224 262.689 131.342 262.759 131.542H262.645C263.136 132.879 263.434 134.28 263.529 135.701C263.515 136.222 263.42 136.738 263.249 137.231H263.348C263.319 137.339 263.287 137.447 263.249 137.549C263.064 138.085 262.719 138.553 262.26 138.887C259.628 140.75 256.615 154.057 256.615 154.057C256.615 154.057 250.646 175.568 249.453 176.792C248.467 177.797 254.665 180.626 259.317 180.289C259.966 180.251 260.608 180.129 261.226 179.927C261.254 180.245 261.286 180.563 261.318 180.852C261.417 181.806 261.518 182.69 261.582 182.967C261.748 183.66 262.075 190.738 262.075 190.738C262.075 190.738 261.404 195.335 261.566 198.534C261.566 198.754 261.595 198.963 261.614 199.17L261.035 199.259C260.157 201.231 263.774 217.679 264.267 219.062C264.594 220.152 264.778 221.279 264.815 222.417C264.815 222.417 264.497 223.587 264.761 224.226C264.925 224.616 265.032 225.029 265.079 225.45C265.079 225.45 264.862 226.512 265.19 227.205C265.518 227.898 265.136 229.113 265.136 229.113C265.136 229.113 265.028 233.905 264.042 236.512C263.773 237.214 263.695 237.974 263.815 238.715C263.935 239.457 264.249 240.153 264.726 240.735C264.794 240.825 264.869 240.911 264.948 240.992C264.948 240.992 270.389 241.037 271.347 240.992H271.471C271.856 240.938 272.842 236.626 271.964 234.55C271.086 232.474 271.856 229.917 271.856 229.917V226.14C271.856 226.14 272.842 225.231 271.856 223.278C270.87 221.326 271.032 220.735 271.032 220.735C271.032 220.735 272.13 217.593 270.978 216.582C269.826 215.571 271.197 211.736 271.197 211.736L271.586 198.954C271.382 198.888 271.175 198.835 270.965 198.795C270.943 198.585 270.921 198.369 270.898 198.14C270.672 195.825 270.478 192.677 270.981 191.781C271.484 190.884 271.726 183.056 271.805 177.615L276.82 177.806C276.925 180.35 277.036 182.671 277.106 182.967C277.271 183.66 277.602 190.738 277.602 190.738C277.602 190.738 276.928 195.335 277.09 198.534C277.09 198.754 277.119 198.963 277.138 199.17L276.559 199.259C275.68 201.231 279.298 217.679 279.791 219.062C280.118 220.152 280.303 221.279 280.342 222.417C280.342 222.417 280.024 223.587 280.284 224.226C280.449 224.616 280.556 225.029 280.603 225.45C280.603 225.45 280.386 226.512 280.714 227.205C281.042 227.898 280.66 229.113 280.66 229.113C280.66 229.113 280.552 233.905 279.565 236.512C279.301 237.215 279.227 237.975 279.351 238.715C279.475 239.455 279.793 240.15 280.272 240.728C280.34 240.819 280.415 240.905 280.494 240.986C280.494 240.986 285.935 241.03 286.893 240.986H287.017C287.402 240.932 288.388 236.62 287.51 234.544C286.632 232.467 287.402 229.911 287.402 229.911V226.14C287.402 226.14 288.388 225.231 287.402 223.278C286.416 221.326 286.578 220.735 286.578 220.735C286.578 220.735 287.676 217.593 286.524 216.582C285.372 215.571 286.743 211.736 286.743 211.736L287.138 198.954C286.93 198.887 286.717 198.834 286.502 198.795C286.479 198.585 286.457 198.369 286.435 198.14C286.209 195.825 286.015 192.677 286.518 191.781C286.922 191.046 287.154 186.315 287.259 181.695C287.259 181.377 287.259 181.059 287.284 180.741C289.588 180.645 291.883 180.388 294.151 179.971C294.151 179.971 291.468 170.493 292.289 168.951C292.642 168.286 292.133 164.747 291.437 160.935C292.408 161.721 293.616 162.158 294.866 162.175C296.066 164.48 299.715 169.784 301.771 170.601C304.183 171.555 302.372 163.097 301.224 161.873C300.68 161.204 300.223 160.471 299.862 159.688C299.894 159.65 299.929 159.618 299.96 159.583C299.992 159.549 300.018 150.585 299.467 150.747C298.917 150.909 298.261 149.415 298.261 149.415L296.562 134.512L295.85 128.273C296.445 128.712 297.151 128.992 297.759 129.428C299.413 130.639 299.954 132.766 300.68 134.649C301.278 136.197 302.118 137.733 303.495 138.706C304.873 139.679 306.894 139.936 308.268 138.951C309.541 138.025 309.916 136.356 310.196 134.833C312.506 135.644 315.309 133.475 315.01 131.107C314.937 130.521 314.721 129.882 315.026 129.37C315.637 128.359 317.571 128.948 318.208 127.949C318.315 127.776 318.37 127.577 318.367 127.374C318.376 127.329 318.38 127.31 318.38 127.288ZM287.482 135.485C287.447 136.054 288.229 140.626 288.866 144.245C288.344 141.99 287.297 139.583 285.235 137.933C285.235 137.933 285.235 137.819 285.21 137.615H285.235C285.235 137.615 285.149 136.706 285.137 135.412C285.14 134.265 285.225 133.119 285.391 131.984V131.956H285.35C285.35 131.86 285.375 131.762 285.391 131.666C285.518 130.708 285.778 129.773 286.164 128.887C286.335 128.54 286.532 128.206 286.753 127.889C287.093 130.963 287.513 134.909 287.482 135.485ZM289.193 146.08C289.473 147.641 289.674 148.738 289.674 148.738L291.363 160.331V160.385C290.453 155.491 289.292 150.334 289.292 150.334C289.41 148.916 289.377 147.49 289.193 146.08Z" fill="url(#paint5_linear_1335_2642)"/>
<path d="M268.486 103.211C268.168 100.273 264.987 97.7393 265.941 94.9443C266.46 93.4213 268.082 92.4896 268.63 90.9761C268.992 89.9777 268.83 88.8807 268.833 87.8187C268.836 86.7567 269.085 85.5707 269.969 84.9825C271.878 83.7106 274.335 86.3275 276.562 85.7933C277.1 85.6092 277.625 85.3861 278.13 85.1256C280.73 84.0922 283.67 85.9745 285.13 88.3529C286.591 90.7313 287.138 93.5676 288.392 96.0668C288.82 97.0319 289.482 97.8746 290.32 98.5183C291.185 99.116 292.369 99.3418 293.304 98.8648L296.947 106.973C297.902 109.062 298.996 111.326 301.084 112.245C302.019 112.655 303.063 112.747 304.03 113.081C305.081 113.452 306.017 114.092 306.742 114.937C307.468 115.782 307.959 116.804 308.166 117.898C308.29 118.61 308.293 119.348 308.545 120.025C309.356 122.213 312.147 122.703 314.18 123.841C315.356 124.504 316.342 125.457 317.043 126.61C317.361 127.161 317.635 127.882 317.295 128.423C316.681 129.415 314.813 128.83 314.221 129.838C313.922 130.347 314.132 130.982 314.221 131.568C314.511 133.924 311.797 136.083 309.563 135.275C309.293 136.792 308.927 138.455 307.698 139.374C306.378 140.359 304.421 140.099 303.088 139.132C301.755 138.165 300.947 136.636 300.368 135.094C299.665 133.218 299.14 131.1 297.539 129.895C296.96 129.463 296.266 129.183 295.7 128.747C294.427 127.774 293.791 126.169 293.336 124.614C292.747 122.674 292.28 120.68 291.427 118.849C290.574 117.017 289.225 115.313 287.377 114.477C285.643 113.698 283.644 113.749 281.853 113.116C278.77 112.029 276.489 109.437 273.421 108.216C272.441 107.804 271.512 107.279 270.653 106.652C269.11 105.637 268.69 105.049 268.486 103.211Z" fill="#3F3D56"/>
<g opacity="0.1">
<path d="M268.773 90.3529C268.838 90.2286 268.896 90.1 268.945 89.9682C269.304 88.9698 269.145 87.8728 269.148 86.8108C269.148 86.4566 269.181 86.1032 269.247 85.7551C268.953 86.3834 268.811 87.0715 268.83 87.7647C268.827 88.62 268.929 89.5167 268.773 90.3529Z" fill="black"/>
<path d="M307.998 138.375C306.677 139.358 304.72 139.1 303.387 138.13C302.054 137.161 301.243 135.637 300.68 134.089C299.976 132.213 299.455 130.095 297.851 128.89C297.275 128.458 296.578 128.175 296.015 127.742C294.742 126.769 294.106 125.164 293.648 123.625C293.059 121.685 292.595 119.692 291.739 117.86C290.883 116.029 289.54 114.324 287.688 113.488C285.958 112.709 283.959 112.76 282.168 112.127C279.082 111.04 276.8 108.448 273.736 107.227C272.755 106.814 271.825 106.289 270.965 105.663C269.457 104.623 269.056 104.035 268.833 102.2C268.515 99.4467 265.715 97.0461 266.151 94.4515C266.08 94.5918 266.017 94.7362 265.963 94.8839C265.009 97.682 268.191 100.216 268.509 103.151C268.716 104.986 269.145 105.574 270.641 106.614C271.501 107.24 272.431 107.765 273.412 108.178C276.476 109.399 278.757 111.994 281.844 113.078C283.635 113.714 285.633 113.66 287.364 114.439C289.216 115.275 290.546 116.982 291.414 118.811C292.283 120.639 292.747 122.626 293.323 124.575C293.791 126.114 294.405 127.72 295.691 128.693C296.266 129.126 296.963 129.409 297.526 129.841C299.117 131.046 299.652 133.164 300.355 135.04C300.934 136.582 301.745 138.108 303.079 139.075C304.412 140.041 306.369 140.302 307.689 139.32C308.532 138.684 308.962 137.714 309.245 136.674C308.993 137.345 308.562 137.933 307.998 138.375Z" fill="black"/>
<path d="M314.536 128.839C314.414 129.067 314.361 129.326 314.383 129.583C315.102 128.874 316.725 129.291 317.291 128.378C317.423 128.153 317.475 127.89 317.438 127.631C316.7 128.331 315.077 127.914 314.536 128.839Z" fill="black"/>
<path d="M309.862 134.277C309.802 134.595 309.741 134.935 309.665 135.265C311.612 135.873 313.862 134.312 314.18 132.34C313.407 133.857 311.498 134.871 309.862 134.277Z" fill="black"/>
</g>
<path d="M272.597 104.741C272.597 104.741 273.657 106.878 270.529 106.922C267.401 106.967 272.543 120.798 272.543 120.798L277.742 127.412L284.211 123.914L284.583 114.267L285.06 108.439C285.06 108.439 279.015 106.477 280.129 103.882C281.242 101.288 272.597 104.741 272.597 104.741Z" fill="#FBBEBE"/>
<path d="M291.373 161.135C291.373 161.135 295.191 164.89 299.645 159.908L296.225 156.28H291.898L291.373 161.135Z" fill="#575A89"/>
<path opacity="0.1" d="M291.787 156.28L291.262 161.135C291.262 161.135 295.08 164.89 299.534 159.908" fill="black"/>
<path d="M298.21 156.941C298.21 156.941 299.747 160.97 300.861 162.188C301.974 163.405 303.724 171.831 301.392 170.878C299.06 169.924 294.606 162.824 294.338 161.606C294.071 160.388 293.969 156.941 293.969 156.941H298.21Z" fill="#FBBEBE"/>
<path d="M264.856 177.609L285.429 178.404L283.043 169.711L272.68 169.501L264.856 177.609Z" fill="#575A89"/>
<path opacity="0.1" d="M267.716 177.609L288.293 178.404L285.907 169.711L275.54 169.501L267.716 177.609Z" fill="black"/>
<path d="M271.589 191.959C271.102 192.865 271.29 196 271.509 198.318C271.649 199.793 271.802 200.929 271.802 200.929C271.802 200.929 264.112 203.313 262.947 201.246C262.651 200.722 262.505 199.803 262.454 198.725C262.295 195.545 262.947 190.963 262.947 190.963C262.947 190.963 262.629 183.917 262.47 183.227C262.406 182.951 262.307 182.073 262.212 181.122C262.072 179.711 261.938 178.14 261.938 178.14L272.438 172.576C272.438 172.576 272.438 173.618 272.419 175.224C272.362 180.267 272.193 190.846 271.589 191.959Z" fill="#FBBEBE"/>
<path opacity="0.1" d="M271.802 200.928C271.802 200.928 264.112 203.313 262.947 201.246C262.651 200.722 262.505 199.803 262.454 198.725C264.045 198.483 268.887 197.816 271.509 198.318C271.649 199.793 271.802 200.928 271.802 200.928Z" fill="black"/>
<path d="M272.066 240.992H271.945C271.019 241.027 265.757 240.992 265.757 240.992C265.68 240.912 265.607 240.827 265.54 240.738C265.075 240.156 264.768 239.464 264.648 238.729C264.528 237.994 264.6 237.24 264.856 236.541C265.811 233.943 265.916 229.173 265.916 229.173C265.916 229.173 266.288 227.956 265.97 227.266C265.652 226.576 265.862 225.517 265.862 225.517C265.813 225.098 265.706 224.688 265.543 224.299C265.279 223.663 265.597 222.496 265.597 222.496C265.561 221.365 265.383 220.244 265.066 219.157C264.589 217.781 261.089 201.405 261.938 199.444C261.938 199.444 269.361 198.172 272.174 199.126L271.802 211.844C271.802 211.844 270.475 215.66 271.589 216.668C272.702 217.676 271.643 220.801 271.643 220.801C271.643 220.801 271.484 221.383 272.438 223.345C273.393 225.307 272.438 226.207 272.438 226.207V229.968C272.438 229.968 271.697 232.512 272.543 234.579C273.39 236.646 272.438 240.925 272.066 240.992Z" fill="#3F3D56"/>
<path d="M286.635 191.959C286.148 192.865 286.336 196 286.556 198.318C286.696 199.793 286.848 200.928 286.848 200.928C286.848 200.928 279.158 203.313 277.994 201.246C277.698 200.722 277.551 199.803 277.5 198.725C277.341 195.545 277.994 190.963 277.994 190.963C277.994 190.963 277.675 183.917 277.516 183.227C277.43 182.855 277.281 179.307 277.163 176.124C277.065 173.409 276.985 170.954 276.985 170.954L287.485 172.576C287.485 172.576 287.485 177.189 287.354 181.93C287.24 186.528 287.027 191.24 286.635 191.959Z" fill="#FBBEBE"/>
<path opacity="0.1" d="M286.848 200.928C286.848 200.928 279.158 203.313 277.994 201.246C277.698 200.722 277.551 199.803 277.5 198.725C279.091 198.483 283.934 197.816 286.556 198.318C286.696 199.793 286.848 200.928 286.848 200.928Z" fill="black"/>
<path d="M287.113 240.992H286.992C286.066 241.027 280.803 240.992 280.803 240.992C280.726 240.912 280.654 240.827 280.587 240.738C280.122 240.156 279.814 239.464 279.695 238.729C279.575 237.994 279.646 237.24 279.903 236.541C280.857 233.93 280.953 229.161 280.953 229.161C280.953 229.161 281.325 227.943 281.007 227.253C280.689 226.563 280.899 225.504 280.899 225.504C280.85 225.085 280.743 224.675 280.58 224.286C280.316 223.65 280.634 222.483 280.634 222.483C280.598 221.353 280.42 220.231 280.103 219.145C279.626 217.768 276.126 201.393 276.975 199.431C276.975 199.431 284.398 198.159 287.211 199.113L286.839 211.831C286.839 211.831 285.512 215.647 286.626 216.655C287.739 217.663 286.68 220.789 286.68 220.789C286.68 220.789 286.521 221.37 287.475 223.332C288.43 225.294 287.475 226.194 287.475 226.194V229.955C287.475 229.955 286.734 232.499 287.58 234.566C288.427 236.633 287.485 240.925 287.113 240.992Z" fill="#3F3D56"/>
<path opacity="0.1" d="M276.734 107.24C280.863 107.24 284.211 103.895 284.211 99.7679C284.211 95.6411 280.863 92.2957 276.734 92.2957C272.604 92.2957 269.256 95.6411 269.256 99.7679C269.256 103.895 272.604 107.24 276.734 107.24Z" fill="black"/>
<path d="M276.734 106.922C280.863 106.922 284.211 103.577 284.211 99.4499C284.211 95.3231 280.863 91.9777 276.734 91.9777C272.604 91.9777 269.256 95.3231 269.256 99.4499C269.256 103.577 272.604 106.922 276.734 106.922Z" fill="#FBBEBE"/>
<path opacity="0.1" d="M261.938 178.14L272.438 172.576C272.438 172.576 272.438 173.618 272.419 175.224C270.886 176.14 268.572 177.517 266.348 178.817C265.139 179.526 263.959 180.213 262.947 180.789C262.712 180.916 262.466 181.023 262.212 181.107C262.072 179.711 261.938 178.14 261.938 178.14Z" fill="black"/>
<path opacity="0.1" d="M287.485 172.563C287.485 172.563 287.485 177.177 287.354 181.917H287.316C286.532 181.945 285.746 181.921 284.965 181.844C283.593 181.698 282.496 181.335 282.101 180.617C281.303 179.218 279.066 177.437 277.176 176.111C277.077 173.396 276.998 170.941 276.998 170.941L287.485 172.563Z" fill="black"/>
<path d="M285.531 132.153C285.265 134.222 285.214 136.314 285.378 138.394C290.202 142.369 289.302 150.741 289.302 150.741C289.302 150.741 293.015 167.701 292.219 169.237C291.424 170.773 294.02 180.207 294.02 180.207C291.807 180.626 289.567 180.883 287.316 180.976C286.532 181.004 285.746 180.98 284.965 180.903C283.593 180.757 282.496 180.394 282.101 179.676C280.619 177.081 274.201 173.211 274.201 173.211C274.201 173.211 270.135 175.647 266.348 177.863C265.139 178.572 263.959 179.259 262.947 179.835C262.126 180.27 261.219 180.519 260.29 180.563C255.788 180.897 249.79 178.08 250.745 177.081C251.913 175.86 257.694 154.452 257.694 154.452C257.694 154.452 260.608 141.202 263.154 139.348C263.6 139.011 263.933 138.547 264.108 138.016C264.98 135.596 263.523 131.717 263.523 131.717C263.523 131.717 255.304 121.596 255.674 121.011C256.043 120.426 256.046 117.304 256.046 117.304C256.046 117.304 257.054 112.375 257.637 109.99C258.219 107.606 262.409 107.021 263.628 107.234C264.847 107.447 267.602 108.188 268.766 107.234C269.931 106.28 271.897 107.606 271.897 107.606L276.727 108.935L281.07 106.391C281.07 106.391 285.423 106.614 285.795 107.196C286.168 107.777 291.895 108.893 291.895 108.893C294.809 110.852 294.704 120.181 294.704 120.181C294.704 120.181 287.704 126.273 286.273 129.402C285.902 130.281 285.652 131.206 285.531 132.153Z" fill="#575A89"/>
<path d="M293.12 118.89L294.711 120.162L296.356 134.948L297.997 149.787C297.997 149.787 298.634 151.272 299.165 151.113C299.696 150.954 299.642 159.908 299.642 159.908C299.642 159.908 293.552 156.165 291.37 161.135L289.671 149.151C289.671 149.151 287.494 136.909 287.548 135.955C287.602 135.002 286.435 124.668 286.435 124.668L293.12 118.89Z" fill="#575A89"/>
<path d="M256.848 119.58L255.68 121.011C255.68 121.011 255.788 127.157 254.884 128.642C253.981 130.127 257.379 138.817 258.652 138.286C259.924 137.755 262.788 124.191 262.788 124.032C262.788 123.873 256.848 119.58 256.848 119.58Z" fill="#575A89"/>
<path d="M256.743 128.324C256.743 128.324 253.029 132.086 253.294 133.889C253.558 135.692 257.112 141.355 262.203 138.312C262.203 138.312 266.924 129.437 256.743 128.324Z" fill="#575A89"/>
<path opacity="0.1" d="M271.945 241.002C271.019 241.037 265.757 241.002 265.757 241.002C265.68 240.922 265.607 240.837 265.54 240.748C266.886 240.289 269.794 239.602 271.945 241.002Z" fill="black"/>
<path opacity="0.1" d="M286.998 241.002C286.072 241.037 280.809 241.002 280.809 241.002C280.732 240.922 280.66 240.837 280.593 240.748C281.933 240.289 284.841 239.602 286.998 241.002Z" fill="black"/>
<path opacity="0.1" d="M266.724 147.797C265.912 155.574 266.18 171.008 266.348 177.863C265.139 178.572 263.959 179.259 262.947 179.835C262.126 180.27 261.219 180.519 260.29 180.563C259.953 178.49 264.624 157.196 266.724 147.797Z" fill="black"/>
<path opacity="0.1" d="M267.716 143.383C267.694 143.494 267.309 145.186 266.724 147.797C266.953 145.568 267.271 143.968 267.716 143.383Z" fill="black"/>
<path opacity="0.1" d="M280.634 142.544C280.634 142.544 285.143 170.843 271.792 174.34C271.789 174.327 281.029 172.925 280.634 142.544Z" fill="black"/>
<path opacity="0.1" d="M287.316 180.976C286.532 181.004 285.746 180.98 284.965 180.903L281.363 142.21C283.66 143.711 286.409 171.17 287.316 180.976Z" fill="black"/>
<path opacity="0.1" d="M271.166 95.0557C271.405 95.0367 271.645 95.0615 271.875 95.1288C272.213 95.297 272.517 95.5254 272.772 95.8029C273.187 96.1494 273.683 96.3851 274.214 96.488C274.745 96.5909 275.293 96.5575 275.808 96.3911C276.171 96.229 276.556 96.1219 276.95 96.0732C277.558 96.0732 278.083 96.5183 278.398 97.0271C278.713 97.5358 278.875 98.1399 279.145 98.6836C279.416 99.2274 279.849 99.7425 280.444 99.876C280.729 99.8871 281.01 99.9518 281.271 100.067C281.431 100.197 281.554 100.367 281.627 100.56C282.124 101.631 282.518 102.897 283.578 103.421C283.967 103.602 284.392 103.694 284.822 103.692C285.258 103.724 285.696 103.645 286.094 103.463C286.486 103.244 286.81 102.922 287.03 102.531C287.692 101.437 287.768 100.083 287.612 98.814C287.418 97.2136 286.848 95.6817 285.948 94.3434C285 92.9899 283.71 91.912 282.209 91.2199C280.708 90.5277 279.05 90.2461 277.405 90.4038C276.831 90.4684 276.262 90.5747 275.703 90.7218C273.679 91.2623 271.694 92.2735 270.466 93.9682C270.169 94.3913 269.842 94.7929 269.489 95.1701C270.046 95.1161 270.606 95.0684 271.166 95.0557Z" fill="black"/>
<path d="M271.166 94.7377C271.405 94.7187 271.645 94.7435 271.875 94.8108C272.213 94.979 272.517 95.2074 272.772 95.4849C273.187 95.8314 273.683 96.0671 274.214 96.17C274.745 96.2729 275.293 96.2396 275.808 96.0731C276.171 95.9111 276.556 95.8039 276.95 95.7552C277.558 95.7552 278.083 96.2003 278.398 96.7091C278.713 97.2178 278.875 97.8219 279.145 98.3657C279.416 98.9094 279.849 99.4245 280.444 99.558C280.729 99.5691 281.01 99.6338 281.271 99.7488C281.431 99.8788 281.554 100.049 281.627 100.242C282.124 101.313 282.518 102.579 283.578 103.103C283.967 103.284 284.392 103.376 284.822 103.374C285.258 103.406 285.696 103.327 286.094 103.145C286.486 102.926 286.81 102.604 287.03 102.213C287.692 101.119 287.768 99.7647 287.612 98.496C287.418 96.8956 286.848 95.3637 285.948 94.0254C285 92.6719 283.71 91.594 282.209 90.9019C280.708 90.2097 279.05 89.9281 277.405 90.0858C276.831 90.1504 276.262 90.2567 275.703 90.4038C273.679 90.9443 271.694 91.9555 270.466 93.6502C270.169 94.0733 269.842 94.4749 269.489 94.8521C270.046 94.7981 270.606 94.7504 271.166 94.7377Z" fill="#3F3D56"/>
<path opacity="0.1" d="M263.052 112.531C263.052 112.531 263.424 115.501 262.152 116.242C260.879 116.983 263.052 112.531 263.052 112.531Z" fill="black"/>
<path opacity="0.1" d="M290.043 135.533C290.043 135.533 293.066 131.081 293.492 132.353C293.918 133.625 290.043 135.533 290.043 135.533Z" fill="black"/>
<path opacity="0.1" d="M290.256 137.014C290.256 137.014 293.237 133.358 293.524 134.789C293.81 136.219 290.256 137.014 290.256 137.014Z" fill="black"/>
<path opacity="0.1" d="M281.5 132.661C280.419 132.677 279.363 132.33 278.503 131.676H278.242C277.349 132.491 276.177 132.931 274.968 132.906C274.339 132.921 273.714 132.808 273.131 132.574C272.547 132.34 272.017 131.99 271.573 131.545H271.226C270.31 132.291 269.159 132.688 267.978 132.667C266.797 132.645 265.662 132.206 264.773 131.428L263.529 131.405C263.529 131.405 264.987 135.285 264.115 137.704L285.378 138.083C285.214 136.002 285.265 133.911 285.531 131.841V131.812L284.363 131.79C283.523 132.372 282.522 132.677 281.5 132.661Z" fill="black"/>
<path opacity="0.1" d="M281.5 133.297C280.419 133.313 279.363 132.966 278.503 132.312H278.242C277.349 133.127 276.177 133.567 274.968 133.542C274.339 133.557 273.714 133.444 273.131 133.21C272.547 132.976 272.017 132.626 271.573 132.181H271.226C270.31 132.927 269.159 133.324 267.978 133.303C266.797 133.281 265.662 132.842 264.773 132.064L263.529 132.041C263.529 132.041 264.987 135.92 264.115 138.34L285.378 138.719C285.214 136.638 285.265 134.547 285.531 132.477V132.448L284.363 132.426C283.523 133.008 282.522 133.313 281.5 133.297Z" fill="black"/>
<path d="M281.5 132.979C280.419 132.995 279.363 132.648 278.503 131.994H278.242C277.349 132.809 276.177 133.249 274.968 133.224C274.339 133.239 273.714 133.126 273.131 132.892C272.547 132.658 272.017 132.308 271.573 131.863H271.226C270.31 132.609 269.159 133.006 267.978 132.985C266.797 132.963 265.662 132.524 264.773 131.746L263.529 131.723C263.529 131.723 264.987 135.603 264.115 138.022L285.378 138.401C285.214 136.32 285.265 134.229 285.531 132.159V132.13L284.363 132.108C283.523 132.69 282.522 132.995 281.5 132.979Z" fill="#3F3D56"/>
<path opacity="0.1" d="M280.555 111.777C280.555 111.777 285.032 112.064 285.06 112.7C285.089 113.336 280.555 111.777 280.555 111.777Z" fill="black"/>
<path opacity="0.1" d="M269.68 109.065C269.68 109.065 265.203 109.352 265.174 109.988C265.146 110.624 269.68 109.065 269.68 109.065Z" fill="black"/>
<path opacity="0.1" d="M286.788 122.067C286.743 122.035 286.699 122.01 286.654 121.981C287.8 123.011 287.609 125.262 286.203 127.119C284.796 128.976 282.661 129.749 281.363 128.916C281.404 128.951 281.439 128.989 281.484 129.024C282.757 129.997 284.984 129.234 286.454 127.313C287.924 125.393 288.067 123.043 286.788 122.067Z" fill="black"/>
<path opacity="0.1" d="M262.196 126.881C261.063 124.839 261.21 122.585 262.492 121.73C262.444 121.752 262.393 121.771 262.346 121.797C260.939 122.579 260.755 124.922 261.919 127.033C263.084 129.145 265.184 130.213 266.59 129.444C266.637 129.417 266.681 129.387 266.724 129.355C265.321 129.99 263.329 128.922 262.196 126.881Z" fill="black"/>
<path opacity="0.1" d="M263.711 109.667L263.3 110.303L262.253 109.746L262.804 108.9C263.168 109.072 263.481 109.336 263.711 109.667Z" fill="black"/>
<path d="M257.061 133.199C257.061 133.199 257.993 128.817 256.743 127.424C255.492 126.032 255.893 118.731 257.802 118.89C259.711 119.049 262.575 124.824 262.097 126.045C261.62 127.266 259.816 133.517 259.816 133.517L257.061 133.199Z" fill="#FBBEBE"/>
<path opacity="0.1" d="M286.998 101.587C286.778 101.977 286.454 102.3 286.063 102.518C285.664 102.701 285.227 102.779 284.79 102.747C284.36 102.75 283.935 102.657 283.546 102.477C282.486 101.949 282.092 100.684 281.595 99.6153C281.533 99.4225 281.421 99.2494 281.271 99.1129C281.013 98.9958 280.736 98.9278 280.453 98.9126C279.858 98.779 279.429 98.2607 279.155 97.7202C278.881 97.1797 278.719 96.5819 278.407 96.0636C278.095 95.5453 277.567 95.0906 276.959 95.1097C276.564 95.1621 276.179 95.2747 275.817 95.4436C275.302 95.6087 274.754 95.641 274.223 95.5376C273.693 95.4342 273.197 95.1984 272.782 94.8522C272.526 94.5747 272.222 94.3463 271.885 94.1781C271.654 94.1107 271.414 94.086 271.175 94.1049C270.809 94.1049 270.446 94.1399 270.081 94.1685C269.899 94.406 269.705 94.6332 269.498 94.849C270.055 94.8013 270.615 94.7536 271.175 94.7409C271.414 94.7219 271.654 94.7467 271.885 94.814C272.222 94.9822 272.526 95.2106 272.782 95.4881C273.197 95.8344 273.693 96.0702 274.223 96.1736C274.754 96.277 275.302 96.2446 275.817 96.0795C276.179 95.9106 276.564 95.798 276.959 95.7456C277.567 95.7456 278.092 96.1908 278.407 96.6995C278.722 97.2083 278.884 97.8124 279.155 98.3561C279.425 98.8999 279.858 99.415 280.453 99.5485C280.736 99.5638 281.013 99.6317 281.271 99.7488C281.431 99.8789 281.554 100.049 281.627 100.242C282.123 101.313 282.518 102.579 283.578 103.103C283.967 103.284 284.392 103.376 284.822 103.374C285.258 103.406 285.696 103.327 286.094 103.145C286.486 102.926 286.81 102.604 287.03 102.213C287.524 101.314 287.745 100.291 287.666 99.2687C287.642 100.085 287.412 100.882 286.998 101.587Z" fill="black"/>
<path d="M258.47 136.674C260.052 136.674 261.334 135.806 261.334 134.735C261.334 133.663 260.052 132.795 258.47 132.795C256.889 132.795 255.607 133.663 255.607 134.735C255.607 135.806 256.889 136.674 258.47 136.674Z" fill="#575A89"/>
<path d="M165.13 242.7C219.341 242.7 263.287 198.782 263.287 144.607C263.287 90.4325 219.341 46.5151 165.13 46.5151C110.919 46.5151 66.9729 90.4325 66.9729 144.607C66.9729 198.782 110.919 242.7 165.13 242.7Z" fill="url(#paint6_linear_1335_2642)"/>
<path d="M216.633 193.901C216.633 209.386 192.274 195.224 166.158 195.224C140.042 195.224 113.627 208.801 113.627 193.316C113.627 184.486 122.046 172.207 134.124 163.288C143.224 156.566 154.398 151.752 165.623 151.752C177.167 151.752 188.475 156.963 197.495 164.118C208.879 173.138 216.633 185.259 216.633 193.901Z" fill="#444053"/>
<path d="M197.492 164.111C183.61 162.022 158.503 159.475 134.124 163.281C143.224 156.56 154.398 151.746 165.623 151.746C177.164 151.746 188.472 156.957 197.492 164.111Z" fill="#F6F8FB"/>
<path opacity="0.05" d="M113.627 75.3641C113.627 75.3641 84.0589 94.2544 84.3007 123.803C84.5426 153.351 113.627 75.3641 113.627 75.3641Z" fill="black"/>
<path d="M263.249 22.0127C263.249 22.0127 236.459 20.4006 239.618 39.1606C239.618 39.1606 238.982 42.4738 241.998 43.9809C241.998 43.9809 242.046 42.5914 244.744 43.062C245.706 43.2228 246.683 43.2697 247.655 43.2019C248.97 43.1126 250.219 42.5968 251.213 41.7329C251.213 41.7329 258.744 38.6264 261.674 26.3243C261.674 26.3243 263.841 23.6407 263.755 22.9539L259.234 24.8808C259.234 24.8808 260.777 28.1399 259.552 30.849C259.552 30.849 259.406 25.0016 258.537 25.1256C258.362 25.1542 256.189 26.2544 256.189 26.2544C256.189 26.2544 258.846 31.9332 256.825 36.0572C256.825 36.0572 257.586 29.062 255.343 26.6646L252.161 28.5215C252.161 28.5215 255.266 34.3848 253.16 39.1701C253.16 39.1701 253.701 31.8315 251.493 28.973L248.607 31.221C248.607 31.221 251.525 37.0016 249.746 40.9698C249.746 40.9698 249.514 32.4261 247.983 31.7806C247.983 31.7806 245.46 34.0064 245.075 34.9189C245.075 34.9189 247.073 39.1129 245.836 41.3259C245.836 41.3259 245.075 35.6344 244.451 35.6026C244.451 35.6026 241.938 39.3736 241.674 41.9619C241.674 41.9619 241.785 38.1145 243.841 35.2433C243.841 35.2433 241.41 35.6598 239.994 37.2369C239.994 37.2369 240.385 34.5692 244.448 34.3371C244.448 34.3371 246.526 31.4754 247.083 31.3037C247.083 31.3037 243.026 30.9635 240.567 32.0541C240.567 32.0541 242.73 29.539 247.824 30.6805L250.688 28.3593C250.688 28.3593 245.349 27.628 243.083 28.4356C243.083 28.4356 245.689 26.2099 251.455 27.8315L254.557 25.9778C254.557 25.9778 250.004 24.9984 247.29 25.3418C247.29 25.3418 250.153 23.7997 255.464 25.4722L257.691 24.477C257.691 24.477 254.353 23.822 253.376 23.7202C252.4 23.6185 252.349 23.345 252.349 23.345C254.468 23.0006 256.642 23.2527 258.626 24.0731C258.626 24.0731 263.329 22.3084 263.249 22.0127Z" fill="url(#paint7_linear_1335_2642)"/>
<path d="M235.772 13.6725C235.772 13.6725 223.681 12.9412 225.094 21.4181C225.094 21.4181 224.81 22.9157 226.169 23.5962C226.169 23.5962 226.188 22.9602 227.41 23.1828C227.844 23.2542 228.285 23.2756 228.724 23.2464C229.318 23.204 229.883 22.9709 230.334 22.5819C230.334 22.5819 233.735 21.1765 235.059 15.6184C235.059 15.6184 236.039 14.407 236.013 14.0954L233.971 14.9666C233.971 14.9666 234.671 16.4388 234.12 17.6629C234.12 17.6629 234.053 15.0207 233.662 15.0842C233.583 15.0842 232.599 15.593 232.599 15.593C232.599 15.593 233.802 18.159 232.895 20.0222C232.895 20.0222 233.239 16.8617 232.227 15.7774L230.789 16.6168C230.789 16.6168 232.192 19.2687 231.241 21.4308C231.241 21.4308 231.483 18.1145 230.487 16.8235L229.182 17.8378C229.182 17.8378 230.499 20.4483 229.698 22.2416C229.698 22.2416 229.593 18.3815 228.899 18.089C228.899 18.089 227.76 19.0938 227.585 19.5071C227.585 19.5071 228.489 21.4149 227.929 22.4038C227.929 22.4038 227.585 19.8315 227.292 19.8219C227.292 19.8219 226.156 21.523 226.039 22.6836C226.093 21.6036 226.43 20.5567 227.015 19.647C226.361 19.7708 225.757 20.0837 225.278 20.5469C225.278 20.5469 225.453 19.3418 227.295 19.2369C227.295 19.2369 228.234 17.9459 228.485 17.8664C228.485 17.8664 226.653 17.7138 225.542 18.2067C225.542 18.2067 226.519 17.0683 228.823 17.5707L230.095 16.5246C230.095 16.5246 227.684 16.2067 226.659 16.5564C226.659 16.5564 227.836 15.5517 230.442 16.2862L231.842 15.4467C231.842 15.4467 229.787 15.0048 228.559 15.1637C228.559 15.1637 229.854 14.4674 232.253 15.2242L233.255 14.7726C233.255 14.7726 231.747 14.4769 231.308 14.4324C230.869 14.3879 230.84 14.2639 230.84 14.2639C231.795 14.1051 232.776 14.2152 233.672 14.5819C233.672 14.5819 235.807 13.806 235.772 13.6725Z" fill="url(#paint8_linear_1335_2642)"/>
<path opacity="0.1" d="M341.431 232.118C346.164 232.118 350 231.47 350 230.671C350 229.872 346.164 229.224 341.431 229.224C336.699 229.224 332.863 229.872 332.863 230.671C332.863 231.47 336.699 232.118 341.431 232.118Z" fill="url(#paint9_linear_1335_2642)"/>
<path opacity="0.1" d="M14.8811 256.184C19.6133 256.184 23.4496 255.537 23.4496 254.738C23.4496 253.939 19.6133 253.291 14.8811 253.291C10.1488 253.291 6.31261 253.939 6.31261 254.738C6.31261 255.537 10.1488 256.184 14.8811 256.184Z" fill="url(#paint10_linear_1335_2642)"/>
<path opacity="0.1" d="M64.6216 258C69.3538 258 73.19 257.352 73.19 256.553C73.19 255.754 69.3538 255.107 64.6216 255.107C59.8893 255.107 56.0531 255.754 56.0531 256.553C56.0531 257.352 59.8893 258 64.6216 258Z" fill="url(#paint11_linear_1335_2642)"/>
<path d="M322.678 248.337C329.744 248.337 335.472 247.369 335.472 246.175C335.472 244.981 329.744 244.013 322.678 244.013C315.612 244.013 309.884 244.981 309.884 246.175C309.884 247.369 315.612 248.337 322.678 248.337Z" fill="url(#paint12_linear_1335_2642)"/>
<path d="M327.966 242.642C328.55 242.166 328.976 241.524 329.188 240.801C329.344 240.073 329.032 239.196 328.335 238.928C327.553 238.63 326.716 239.173 326.083 239.72C325.45 240.267 324.721 240.89 323.89 240.776C324.318 240.389 324.637 239.899 324.818 239.352C324.998 238.805 325.034 238.221 324.921 237.657C324.885 237.423 324.786 237.203 324.635 237.021C324.199 236.556 323.413 236.754 322.891 237.119C321.237 238.283 320.776 240.528 320.766 242.55C320.601 241.822 320.741 241.062 320.737 240.324C320.734 239.587 320.527 238.735 319.897 238.343C319.506 238.135 319.068 238.032 318.625 238.045C317.88 238.016 317.053 238.089 316.544 238.633C315.907 239.31 316.076 240.442 316.627 241.176C317.177 241.911 318.011 242.388 318.777 242.9C319.395 243.267 319.921 243.768 320.317 244.366C320.364 244.45 320.402 244.538 320.432 244.63H325.093C326.136 244.1 327.103 243.431 327.966 242.642Z" fill="url(#paint13_linear_1335_2642)"/>
<path d="M18.8806 215.981C18.8806 215.981 20.6273 218.264 18.0724 221.704C15.5174 225.145 13.4111 228.064 14.2543 230.213C14.2543 230.213 18.1074 223.809 21.2542 223.717C24.4009 223.625 22.3296 219.832 18.8806 215.981Z" fill="url(#paint14_linear_1335_2642)"/>
<path opacity="0.1" d="M18.8806 215.981C19.0323 216.202 19.1522 216.442 19.2369 216.696C22.2978 220.289 23.9268 223.644 20.9869 223.727C18.2442 223.806 14.9415 228.703 14.1684 229.94C14.1954 230.036 14.2273 230.13 14.2638 230.223C14.2638 230.223 18.1169 223.819 21.2637 223.727C24.4105 223.634 22.3296 219.832 18.8806 215.981Z" fill="black"/>
<path d="M22.1292 218.89C22.1292 219.695 22.0369 220.347 21.9255 220.347C21.8142 220.347 21.7251 219.711 21.7251 218.89C21.7251 218.07 21.8364 218.464 21.951 218.464C22.0655 218.464 22.1292 218.086 22.1292 218.89Z" fill="#FFD037"/>
<path d="M23.23 219.851C22.5237 220.236 21.9096 220.468 21.8555 220.37C21.8014 220.271 22.3328 219.883 23.0391 219.498C23.7455 219.113 23.4655 219.393 23.5196 219.498C23.5737 219.603 23.9491 219.466 23.23 219.851Z" fill="#FFD037"/>
<path d="M9.6471 215.981C9.6471 215.981 7.90032 218.264 10.4521 221.704C13.0039 225.145 15.1134 228.064 14.2702 230.213C14.2702 230.213 10.4139 223.809 7.27033 223.717C4.12675 223.625 6.19489 219.832 9.6471 215.981Z" fill="url(#paint15_linear_1335_2642)"/>
<path opacity="0.1" d="M9.64709 215.981C9.49401 216.201 9.37395 216.442 9.29074 216.696C6.22988 220.289 4.59764 223.644 7.54077 223.727C10.2803 223.806 13.5861 228.703 14.3561 229.94C14.3301 230.035 14.2993 230.13 14.2638 230.223C14.2638 230.223 10.4075 223.819 7.26395 223.727C4.12037 223.634 6.19488 219.832 9.64709 215.981Z" fill="black"/>
<path d="M6.39851 218.89C6.39851 219.695 6.4876 220.347 6.59897 220.347C6.71033 220.347 6.79942 219.711 6.79942 218.89C6.79942 218.07 6.68806 218.464 6.57669 218.464C6.46533 218.464 6.39851 218.086 6.39851 218.89Z" fill="#FFD037"/>
<path d="M5.28172 219.851C5.98807 220.236 6.60533 220.468 6.65942 220.37C6.71351 220.271 6.18215 219.883 5.4758 219.498C4.76945 219.113 5.04627 219.393 4.99536 219.498C4.94445 219.603 4.57536 219.466 5.28172 219.851Z" fill="#FFD037"/>
<path d="M6.95532 229.924C6.95532 229.924 11.8425 229.774 13.3188 228.725C14.7952 227.676 20.8373 226.426 21.2032 228.089C21.5691 229.752 28.5468 236.452 23.0296 236.496C17.5124 236.541 10.2103 235.634 8.74029 234.741C7.27032 233.847 6.95532 229.924 6.95532 229.924Z" fill="#A8A8A8"/>
<path opacity="0.2" d="M23.1218 235.927C17.6047 235.971 10.3025 235.065 8.83256 234.172C7.71258 233.491 7.26714 231.046 7.11759 229.917H6.95532C6.95532 229.917 7.2735 233.857 8.73393 234.75C10.1944 235.644 17.506 236.55 23.0232 236.506C24.6141 236.506 25.1645 235.924 25.1359 235.087C24.9132 235.599 24.3086 235.917 23.1218 235.927Z" fill="black"/>
<path d="M130.233 131.746C132.1 131.641 140.892 130.979 146.476 127.797C147.372 127.269 148.385 126.971 149.425 126.928C151.2 126.878 153.243 127.618 151.935 131.765C149.816 138.547 137.512 146.178 129.876 145.755C122.533 145.348 113.821 142.391 108.068 131.994C107.517 130.993 107.246 129.863 107.283 128.722C107.349 126.623 108.113 123.994 112.055 126.925C117.382 130.884 127.487 131.634 129.514 131.746C129.753 131.758 129.993 131.758 130.233 131.746Z" fill="#444053"/>
<path d="M200.868 131.746C202.735 131.641 211.527 130.979 217.111 127.797C218.007 127.269 219.02 126.971 220.06 126.928C221.836 126.878 223.878 127.618 222.57 131.765C220.451 138.547 208.148 146.178 200.511 145.755C193.168 145.348 184.456 142.391 178.704 131.994C178.152 130.993 177.881 129.863 177.918 128.722C177.984 126.623 178.748 123.994 182.69 126.925C188.017 130.884 198.122 131.634 200.149 131.746C200.388 131.758 200.628 131.758 200.868 131.746Z" fill="#444053"/>
</g>
<defs>
<linearGradient id="paint0_linear_1335_2642" x1="9.4465" y1="131.352" x2="271.077" y2="254.255" gradientUnits="userSpaceOnUse">
<stop stop-color="#246BFD"/>
<stop offset="1" stop-color="#5089FF"/>
</linearGradient>
<linearGradient id="paint1_linear_1335_2642" x1="18.8672" y1="5.08127" x2="236.832" y2="172.717" gradientUnits="userSpaceOnUse">
<stop stop-color="#246BFD"/>
<stop offset="1" stop-color="#5089FF"/>
</linearGradient>
<linearGradient id="paint2_linear_1335_2642" x1="6.147" y1="85.286" x2="252.847" y2="241.665" gradientUnits="userSpaceOnUse">
<stop stop-color="#246BFD"/>
<stop offset="1" stop-color="#5089FF"/>
</linearGradient>
<linearGradient id="paint3_linear_1335_2642" x1="7.19517" y1="44.563" x2="226.632" y2="219.778" gradientUnits="userSpaceOnUse">
<stop stop-color="#246BFD"/>
<stop offset="1" stop-color="#5089FF"/>
</linearGradient>
<linearGradient id="paint4_linear_1335_2642" x1="36.4321" y1="225.587" x2="186.443" y2="372.292" gradientUnits="userSpaceOnUse">
<stop stop-color="#246BFD"/>
<stop offset="1" stop-color="#5089FF"/>
</linearGradient>
<linearGradient id="paint5_linear_1335_2642" x1="283.858" y1="241.014" x2="283.858" y2="83.9269" gradientUnits="userSpaceOnUse">
<stop stop-color="#808080" stop-opacity="0.25"/>
<stop offset="0.54" stop-color="#808080" stop-opacity="0.12"/>
<stop offset="1" stop-color="#808080" stop-opacity="0.1"/>
</linearGradient>
<linearGradient id="paint6_linear_1335_2642" x1="70.575" y1="71.8723" x2="271.507" y2="89.9498" gradientUnits="userSpaceOnUse">
<stop stop-color="#246BFD"/>
<stop offset="1" stop-color="#5089FF"/>
</linearGradient>
<linearGradient id="paint7_linear_1335_2642" x1="239.807" y1="24.822" x2="264.734" y2="27.3071" gradientUnits="userSpaceOnUse">
<stop stop-color="#246BFD"/>
<stop offset="1" stop-color="#5089FF"/>
</linearGradient>
<linearGradient id="paint8_linear_1335_2642" x1="225.181" y1="14.9413" x2="236.455" y2="16.0667" gradientUnits="userSpaceOnUse">
<stop stop-color="#246BFD"/>
<stop offset="1" stop-color="#5089FF"/>
</linearGradient>
<linearGradient id="paint9_linear_1335_2642" x1="333.177" y1="229.598" x2="346.953" y2="236.934" gradientUnits="userSpaceOnUse">
<stop stop-color="#246BFD"/>
<stop offset="1" stop-color="#5089FF"/>
</linearGradient>
<linearGradient id="paint10_linear_1335_2642" x1="6.62705" y1="253.665" x2="20.4029" y2="261" gradientUnits="userSpaceOnUse">
<stop stop-color="#246BFD"/>
<stop offset="1" stop-color="#5089FF"/>
</linearGradient>
<linearGradient id="paint11_linear_1335_2642" x1="56.3675" y1="255.48" x2="70.1434" y2="262.816" gradientUnits="userSpaceOnUse">
<stop stop-color="#246BFD"/>
<stop offset="1" stop-color="#5089FF"/>
</linearGradient>
<linearGradient id="paint12_linear_1335_2642" x1="310.354" y1="244.572" x2="330.931" y2="255.519" gradientUnits="userSpaceOnUse">
<stop stop-color="#246BFD"/>
<stop offset="1" stop-color="#5089FF"/>
</linearGradient>
<linearGradient id="paint13_linear_1335_2642" x1="316.375" y1="237.768" x2="329.589" y2="239.742" gradientUnits="userSpaceOnUse">
<stop stop-color="#246BFD"/>
<stop offset="1" stop-color="#5089FF"/>
</linearGradient>
<linearGradient id="paint14_linear_1335_2642" x1="14.2258" y1="217.82" x2="23.2164" y2="218.317" gradientUnits="userSpaceOnUse">
<stop stop-color="#246BFD"/>
<stop offset="1" stop-color="#5089FF"/>
</linearGradient>
<linearGradient id="paint15_linear_1335_2642" x1="5.88086" y1="217.82" x2="14.8697" y2="218.317" gradientUnits="userSpaceOnUse">
<stop stop-color="#246BFD"/>
<stop offset="1" stop-color="#5089FF"/>
</linearGradient>
<clipPath id="clip0_1335_2642">
<rect width="350" height="258" fill="white"/>
</clipPath>
</defs>
</svg>
