<svg width="114" height="109" viewBox="0 0 114 109" fill="none" xmlns="http://www.w3.org/2000/svg">
<path d="M101.175 51.49C103.027 51.49 104.5 50.0175 104.5 48.165V43.7475C104.5 24.2725 98.5625 18.335 79.0875 18.335H34.9125C15.4375 18.335 9.5 24.2725 9.5 43.7475V45.98C9.5 47.8325 10.9725 49.305 12.825 49.305C17.1 49.305 20.5675 52.7725 20.5675 57.0475C20.5675 61.3225 17.1 64.7425 12.825 64.7425C10.9725 64.7425 9.5 66.215 9.5 68.0675V70.3C9.5 89.775 15.4375 95.7125 34.9125 95.7125H79.0875C98.5625 95.7125 104.5 89.775 104.5 70.3C104.5 68.4475 103.027 66.975 101.175 66.975C96.9 66.975 93.4325 63.5075 93.4325 59.2325C93.4325 54.9575 96.9 51.49 101.175 51.49ZM42.75 42.18C45.3625 42.18 47.5 44.3175 47.5 46.93C47.5 49.5425 45.41 51.68 42.75 51.68C40.1375 51.68 38 49.5425 38 46.93C38 44.3175 40.09 42.18 42.75 42.18ZM71.25 75.43C68.59 75.43 66.4525 73.2925 66.4525 70.68C66.4525 68.0675 68.59 65.93 71.2025 65.93C73.815 65.93 75.9525 68.0675 75.9525 70.68C75.9525 73.2925 73.91 75.43 71.25 75.43ZM75.525 45.03L43.5575 76.9975C42.845 77.71 41.9425 78.0425 41.04 78.0425C40.1375 78.0425 39.235 77.71 38.5225 76.9975C37.145 75.62 37.145 73.34 38.5225 71.9625L70.49 39.995C71.8675 38.6175 74.1475 38.6175 75.525 39.995C76.9025 41.3725 76.9025 43.6525 75.525 45.03Z" fill="white"/>
</svg>
