<svg width="30" height="30" viewBox="0 0 30 30" fill="none" xmlns="http://www.w3.org/2000/svg">
<path d="M19.475 15.0004C19.475 17.4754 17.475 19.4754 15 19.4754C12.525 19.4754 10.525 17.4754 10.525 15.0004C10.525 12.5254 12.525 10.5254 15 10.5254C17.475 10.5254 19.475 12.5254 19.475 15.0004Z" stroke="#505050" stroke-width="1.5" stroke-linecap="round" stroke-linejoin="round"/>
<path d="M15 25.3379C19.4125 25.3379 23.525 22.7379 26.3875 18.2379C27.5125 16.4754 27.5125 13.5129 26.3875 11.7504C23.525 7.25039 19.4125 4.65039 15 4.65039C10.5875 4.65039 6.475 7.25039 3.6125 11.7504C2.4875 13.5129 2.4875 16.4754 3.6125 18.2379C6.475 22.7379 10.5875 25.3379 15 25.3379Z" stroke="#505050" stroke-width="1.5" stroke-linecap="round" stroke-linejoin="round"/>
</svg>
