<svg width="21" height="21" viewBox="0 0 21 21" fill="none" xmlns="http://www.w3.org/2000/svg">
<path d="M18.6669 7.90192C18.4253 7.51859 18.1669 7.16025 17.9003 6.82692C17.5919 6.43525 17.0086 6.40192 16.6586 6.75192L14.1586 9.25192C14.3419 9.80192 14.3753 10.4353 14.2086 11.0936C13.9169 12.2686 12.9669 13.2186 11.7919 13.5103C11.1336 13.6769 10.5003 13.6436 9.95027 13.4603C9.95027 13.4603 8.7586 14.6519 7.90027 15.5103C7.4836 15.9269 7.61693 16.6603 8.17527 16.8769C9.06693 17.2186 9.99193 17.3936 10.9419 17.3936C12.4253 17.3936 13.8669 16.9603 15.1836 16.1519C16.5253 15.3186 17.7336 14.0936 18.7086 12.5353C19.5003 11.2769 19.4586 9.16025 18.6669 7.90192Z" fill="#8A8A8E"/>
<path d="M12.6253 8.56859L9.25859 11.9353C8.83359 11.5019 8.55859 10.9019 8.55859 10.2519C8.55859 8.94359 9.62526 7.86859 10.9419 7.86859C11.5919 7.86859 12.1919 8.14359 12.6253 8.56859Z" fill="#8A8A8E"/>
<path d="M16.1502 5.04359L13.3252 7.86859C12.7169 7.25192 11.8752 6.88525 10.9419 6.88525C9.07519 6.88525 7.57519 8.39359 7.57519 10.2519C7.57519 11.1853 7.95019 12.0269 8.55852 12.6353L5.74185 15.4603H5.73352C4.80852 14.7103 3.95852 13.7519 3.23352 12.6186C2.40019 11.3103 2.40019 9.18525 3.23352 7.87692C4.20019 6.36025 5.38352 5.16859 6.70019 4.35192C8.01685 3.55192 9.45852 3.11025 10.9419 3.11025C12.8002 3.11025 14.6002 3.79359 16.1502 5.04359Z" fill="#8A8A8E"/>
<path d="M13.3252 10.2519C13.3252 11.5603 12.2585 12.6353 10.9418 12.6353C10.8918 12.6353 10.8502 12.6353 10.8002 12.6186L13.3085 10.1103C13.3252 10.1603 13.3252 10.2019 13.3252 10.2519Z" fill="#8A8A8E"/>
<path d="M19.0835 2.11025C18.8335 1.86025 18.4252 1.86025 18.1752 2.11025L2.80017 17.4936C2.55017 17.7436 2.55017 18.1519 2.80017 18.4019C2.92517 18.5186 3.0835 18.5853 3.25017 18.5853C3.41684 18.5853 3.57517 18.5186 3.70017 18.3936L19.0835 3.01025C19.3418 2.76025 19.3418 2.36025 19.0835 2.11025Z" fill="#8A8A8E"/>
</svg>
