<svg width="21" height="21" viewBox="0 0 21 21" fill="none" xmlns="http://www.w3.org/2000/svg">
<path d="M18.5625 5.48438H13.5" stroke="#9B81E5" stroke-width="1.5" stroke-miterlimit="10" stroke-linecap="round" stroke-linejoin="round"/>
<path d="M5.0625 5.48438H1.6875" stroke="#9B81E5" stroke-width="1.5" stroke-miterlimit="10" stroke-linecap="round" stroke-linejoin="round"/>
<path d="M8.4375 8.4375C10.0685 8.4375 11.3906 7.11534 11.3906 5.48438C11.3906 3.85341 10.0685 2.53125 8.4375 2.53125C6.80653 2.53125 5.48438 3.85341 5.48438 5.48438C5.48438 7.11534 6.80653 8.4375 8.4375 8.4375Z" stroke="#9B81E5" stroke-width="1.5" stroke-miterlimit="10" stroke-linecap="round" stroke-linejoin="round"/>
<path d="M18.5625 14.7656H15.1875" stroke="#9B81E5" stroke-width="1.5" stroke-miterlimit="10" stroke-linecap="round" stroke-linejoin="round"/>
<path d="M6.75 14.7656H1.6875" stroke="#9B81E5" stroke-width="1.5" stroke-miterlimit="10" stroke-linecap="round" stroke-linejoin="round"/>
<path d="M11.8125 17.7188C13.4435 17.7188 14.7656 16.3966 14.7656 14.7656C14.7656 13.1347 13.4435 11.8125 11.8125 11.8125C10.1815 11.8125 8.85938 13.1347 8.85938 14.7656C8.85938 16.3966 10.1815 17.7188 11.8125 17.7188Z" stroke="#9B81E5" stroke-width="1.5" stroke-miterlimit="10" stroke-linecap="round" stroke-linejoin="round"/>
</svg>
