<svg width="30" height="30" viewBox="0 0 30 30" fill="none" xmlns="http://www.w3.org/2000/svg">
<path d="M26.2811 15.0554C26.2811 14.0554 26.2001 13.3257 26.0249 12.5689H14.6321V17.0825H21.3194C21.1847 18.2041 20.4566 19.8934 18.8387 21.0284L18.816 21.1796L22.4182 23.9766L22.6677 24.0015C24.9597 21.8799 26.2811 18.7582 26.2811 15.0554Z" fill="#4285F4"/>
<path d="M14.6314 26.9477C17.9076 26.9477 20.658 25.8665 22.667 24.0017L18.8379 21.0286C17.8133 21.7448 16.438 22.2448 14.6314 22.2448C11.4226 22.2448 8.69915 20.1232 7.72832 17.1907L7.58601 17.2028L3.84043 20.1083L3.79144 20.2448C5.78683 24.2178 9.88553 26.9477 14.6314 26.9477Z" fill="#34A853"/>
<path d="M7.72904 17.1908C7.47288 16.434 7.32463 15.6231 7.32463 14.7853C7.32463 13.9474 7.47288 13.1366 7.71556 12.3799L7.70878 12.2187L3.91624 9.26656L3.79216 9.32571C2.96976 10.9744 2.49786 12.8258 2.49786 14.7853C2.49786 16.7448 2.96976 18.5961 3.79216 20.2448L7.72904 17.1908Z" fill="#FBBC05"/>
<path d="M14.6315 7.32573C16.91 7.32573 18.447 8.31222 19.3234 9.13662L22.748 5.78519C20.6447 3.82571 17.9077 2.62299 14.6315 2.62299C9.88556 2.62299 5.78685 5.35273 3.79144 9.32574L7.71486 12.3799C8.69918 9.44741 11.4226 7.32573 14.6315 7.32573Z" fill="#EB4335"/>
</svg>
