<svg width="20" height="20" viewBox="0 0 20 20" fill="none" xmlns="http://www.w3.org/2000/svg">
<path d="M17.3583 6.6751L11.9 2.30843C10.8333 1.45843 9.16666 1.4501 8.10833 2.3001L2.65 6.6751C1.86666 7.3001 1.39166 8.5501 1.55833 9.53343L2.60833 15.8168C2.85 17.2251 4.15833 18.3334 5.58333 18.3334H14.4167C15.825 18.3334 17.1583 17.2001 17.4 15.8084L18.45 9.5251C18.6 8.5501 18.125 7.3001 17.3583 6.6751ZM10.625 15.0001C10.625 15.3418 10.3417 15.6251 10 15.6251C9.65833 15.6251 9.375 15.3418 9.375 15.0001V12.5001C9.375 12.1584 9.65833 11.8751 10 11.8751C10.3417 11.8751 10.625 12.1584 10.625 12.5001V15.0001Z" fill="#246BFD"/>
</svg>
