<svg width="30" height="30" viewBox="0 0 30 30" fill="none" xmlns="http://www.w3.org/2000/svg">
<path d="M11.25 27.5H18.75C25 27.5 27.5 25 27.5 18.75V11.25C27.5 5 25 2.5 18.75 2.5H11.25C5 2.5 2.5 5 2.5 11.25V18.75C2.5 25 5 27.5 11.25 27.5Z" stroke="#505050" stroke-width="1.5" stroke-linecap="round" stroke-linejoin="round"/>
<path d="M20.35 17.0123C18.9375 18.4248 16.9125 18.8623 15.125 18.2998L11.8875 21.5248C11.6625 21.7623 11.2 21.9123 10.8625 21.8623L9.3625 21.6623C8.8625 21.5998 8.4125 21.1248 8.3375 20.6373L8.1375 19.1373C8.0875 18.8123 8.25 18.3498 8.475 18.1123L11.7 14.8873C11.15 13.0998 11.575 11.0748 12.9875 9.6623C15.0125 7.6373 18.3125 7.6373 20.35 9.6623C22.375 11.6748 22.375 14.9748 20.35 17.0123Z" stroke="#505050" stroke-width="1.5" stroke-miterlimit="10" stroke-linecap="round" stroke-linejoin="round"/>
<path d="M13.0625 20.3504L12 19.2754" stroke="#505050" stroke-width="1.5" stroke-miterlimit="10" stroke-linecap="round" stroke-linejoin="round"/>
<path d="M16.7432 13.375H16.7544" stroke="#505050" stroke-width="1.5" stroke-linecap="round" stroke-linejoin="round"/>
</svg>
