<svg width="30" height="30" viewBox="0 0 30 30" fill="none" xmlns="http://www.w3.org/2000/svg">
<path d="M15 9.8623L13.6625 12.1873C13.3625 12.6998 13.6125 13.1248 14.2 13.1248H15.7875C16.3875 13.1248 16.625 13.5498 16.325 14.0623L15 16.3873" stroke="#505050" stroke-width="1.5" stroke-linecap="round" stroke-linejoin="round"/>
<path d="M10.375 22.5502V21.1002C7.5 19.3627 5.1375 15.9752 5.1375 12.3752C5.1375 6.18772 10.825 1.33772 17.25 2.73772C20.075 3.36272 22.55 5.23772 23.8375 7.82522C26.45 13.0752 23.7 18.6502 19.6625 21.0877V22.5377C19.6625 22.9002 19.8 23.7377 18.4625 23.7377H11.575C10.2 23.7502 10.375 23.2127 10.375 22.5502Z" stroke="#505050" stroke-width="1.5" stroke-linecap="round" stroke-linejoin="round"/>
<path d="M10.625 27.5C13.4875 26.6875 16.5125 26.6875 19.375 27.5" stroke="#505050" stroke-width="1.5" stroke-linecap="round" stroke-linejoin="round"/>
</svg>
