<svg width="21" height="21" viewBox="0 0 21 21" fill="none" xmlns="http://www.w3.org/2000/svg">
<path d="M10.442 14.7103C11.1921 14.7103 11.8003 14.1021 11.8003 13.3519C11.8003 12.6017 11.1921 11.9936 10.442 11.9936C9.69176 11.9936 9.08362 12.6017 9.08362 13.3519C9.08362 14.1021 9.69176 14.7103 10.442 14.7103Z" fill="#8A8A8E"/>
<path d="M15.6752 8.19359V7.15192C15.6752 4.90192 15.1335 1.91859 10.4419 1.91859C5.75019 1.91859 5.20852 4.90192 5.20852 7.15192V8.19359C2.87519 8.48525 2.10852 9.66859 2.10852 12.5769V14.1269C2.10852 17.5436 3.15019 18.5853 6.56685 18.5853H14.3169C17.7335 18.5853 18.7752 17.5436 18.7752 14.1269V12.5769C18.7752 9.66859 18.0085 8.48525 15.6752 8.19359ZM10.4419 15.8686C9.05019 15.8686 7.92519 14.7353 7.92519 13.3519C7.92519 11.9603 9.05852 10.8353 10.4419 10.8353C11.8252 10.8353 12.9585 11.9686 12.9585 13.3519C12.9585 14.7436 11.8335 15.8686 10.4419 15.8686ZM6.56685 8.11859C6.50019 8.11859 6.44185 8.11859 6.37519 8.11859V7.15192C6.37519 4.71025 7.06685 3.08525 10.4419 3.08525C13.8169 3.08525 14.5085 4.71025 14.5085 7.15192V8.12692C14.4419 8.12692 14.3835 8.12692 14.3169 8.12692H6.56685V8.11859Z" fill="#8A8A8E"/>
</svg>
