<svg width="20" height="20" viewBox="0 0 20 20" fill="none" xmlns="http://www.w3.org/2000/svg">
<path d="M14.787 3.20536H6.34867C3.81718 3.20536 2.12952 4.47111 2.12952 7.42451V13.3313C2.12952 16.2847 3.81718 17.5505 6.34867 17.5505H14.787C17.3185 17.5505 19.0061 16.2847 19.0061 13.3313V7.42451C19.0061 4.47111 17.3185 3.20536 14.787 3.20536ZM15.1836 8.34429L12.5424 10.4539C11.9855 10.9011 11.2766 11.1205 10.5678 11.1205C9.85901 11.1205 9.14175 10.9011 8.59326 10.4539L5.95207 8.34429C5.68204 8.12489 5.63985 7.71985 5.85081 7.44983C6.07021 7.1798 6.46681 7.12917 6.73683 7.34857L9.37802 9.45815C10.0193 9.97288 11.1079 9.97288 11.7492 9.45815L14.3904 7.34857C14.6604 7.12917 15.0654 7.17136 15.2764 7.44983C15.4958 7.71985 15.4536 8.12489 15.1836 8.34429Z" fill="#8A8A8E"/>
</svg>
