<svg width="30" height="30" viewBox="0 0 30 30" fill="none" xmlns="http://www.w3.org/2000/svg">
<path d="M15 8.0498V12.2123" stroke="#505050" stroke-width="1.5" stroke-miterlimit="10" stroke-linecap="round"/>
<path d="M15.025 2.5C10.425 2.5 6.70001 6.225 6.70001 10.825V13.45C6.70001 14.3 6.35001 15.575 5.91251 16.3L4.32501 18.95C3.35001 20.5875 4.02501 22.4125 5.82501 23.0125C11.8 25 18.2625 25 24.2375 23.0125C25.925 22.45 26.65 20.475 25.7375 18.95L24.15 16.3C23.7125 15.575 23.3625 14.2875 23.3625 13.45V10.825C23.35 6.25 19.6 2.5 15.025 2.5Z" stroke="#505050" stroke-width="1.5" stroke-miterlimit="10" stroke-linecap="round"/>
<path d="M19.1625 23.5244C19.1625 25.8119 17.2875 27.6869 15 27.6869C13.8625 27.6869 12.8125 27.2119 12.0625 26.4619C11.3125 25.7119 10.8375 24.6619 10.8375 23.5244" stroke="#505050" stroke-width="1.5" stroke-miterlimit="10"/>
</svg>
