<svg width="30" height="30" viewBox="0 0 30 30" fill="none" xmlns="http://www.w3.org/2000/svg">
<path d="M22.5 8.95C22.425 8.9375 22.3375 8.9375 22.2625 8.95C20.5375 8.8875 19.1625 7.475 19.1625 5.725C19.1625 3.9375 20.6 2.5 22.3875 2.5C24.175 2.5 25.6125 3.95 25.6125 5.725C25.6 7.475 24.225 8.8875 22.5 8.95Z" stroke="#505050" stroke-width="1.5" stroke-linecap="round" stroke-linejoin="round"/>
<path d="M21.2125 18.0502C22.925 18.3377 24.8125 18.0377 26.1375 17.1502C27.9 15.9752 27.9 14.0502 26.1375 12.8752C24.8 11.9877 22.8875 11.6877 21.175 11.9877" stroke="#505050" stroke-width="1.5" stroke-linecap="round" stroke-linejoin="round"/>
<path d="M7.46249 8.95C7.53749 8.9375 7.62499 8.9375 7.69999 8.95C9.42499 8.8875 10.8 7.475 10.8 5.725C10.8 3.9375 9.36249 2.5 7.57499 2.5C5.78749 2.5 4.34999 3.95 4.34999 5.725C4.36249 7.475 5.73749 8.8875 7.46249 8.95Z" stroke="#505050" stroke-width="1.5" stroke-linecap="round" stroke-linejoin="round"/>
<path d="M8.75 18.0502C7.0375 18.3377 5.15 18.0377 3.825 17.1502C2.0625 15.9752 2.0625 14.0502 3.825 12.8752C5.1625 11.9877 7.075 11.6877 8.7875 11.9877" stroke="#505050" stroke-width="1.5" stroke-linecap="round" stroke-linejoin="round"/>
<path d="M15 18.2879C14.925 18.2754 14.8375 18.2754 14.7625 18.2879C13.0375 18.2254 11.6625 16.8129 11.6625 15.0629C11.6625 13.2754 13.1 11.8379 14.8875 11.8379C16.675 11.8379 18.1125 13.2879 18.1125 15.0629C18.1 16.8129 16.725 18.2379 15 18.2879Z" stroke="#505050" stroke-width="1.5" stroke-linecap="round" stroke-linejoin="round"/>
<path d="M11.3625 22.2252C9.59999 23.4002 9.59999 25.3252 11.3625 26.5002C13.3625 27.8377 16.6375 27.8377 18.6375 26.5002C20.4 25.3252 20.4 23.4002 18.6375 22.2252C16.65 20.9002 13.3625 20.9002 11.3625 22.2252Z" stroke="#505050" stroke-width="1.5" stroke-linecap="round" stroke-linejoin="round"/>
</svg>
