<svg width="18" height="18" viewBox="0 0 18 18" fill="none" xmlns="http://www.w3.org/2000/svg">
<g clip-path="url(#clip0_140_807)">
<path d="M1.5 15C1.67038 15.2374 1.89598 15.4297 2.15732 15.5604C2.41866 15.6911 2.70788 15.7561 3 15.75C3.29212 15.7561 3.58134 15.6911 3.84268 15.5604C4.10402 15.4297 4.32962 15.2374 4.5 15C4.67038 14.7627 4.89598 14.5703 5.15732 14.4397C5.41866 14.309 5.70788 14.2439 6 14.25C6.29212 14.2439 6.58134 14.309 6.84268 14.4397C7.10402 14.5703 7.32962 14.7627 7.5 15C7.67038 15.2374 7.89598 15.4297 8.15732 15.5604C8.41866 15.6911 8.70788 15.7561 9 15.75C9.29212 15.7561 9.58134 15.6911 9.84268 15.5604C10.104 15.4297 10.3296 15.2374 10.5 15C10.6704 14.7627 10.896 14.5703 11.1573 14.4397C11.4187 14.309 11.7079 14.2439 12 14.25C12.2921 14.2439 12.5813 14.309 12.8427 14.4397C13.104 14.5703 13.3296 14.7627 13.5 15C13.6704 15.2374 13.896 15.4297 14.1573 15.5604C14.4187 15.6911 14.7079 15.7561 15 15.75C15.2921 15.7561 15.5813 15.6911 15.8427 15.5604C16.104 15.4297 16.3296 15.2374 16.5 15" stroke="#9B81E5" stroke-width="1.5" stroke-linecap="round" stroke-linejoin="round"/>
<path d="M1.5 12C1.67038 12.2374 1.89598 12.4297 2.15732 12.5604C2.41866 12.6911 2.70788 12.7561 3 12.75C3.29212 12.7561 3.58134 12.6911 3.84268 12.5604C4.10402 12.4297 4.32962 12.2374 4.5 12C4.67038 11.7627 4.89598 11.5703 5.15732 11.4397C5.41866 11.309 5.70788 11.2439 6 11.25C6.29212 11.2439 6.58134 11.309 6.84268 11.4397C7.10402 11.5703 7.32962 11.7627 7.5 12C7.67038 12.2374 7.89598 12.4297 8.15732 12.5604C8.41866 12.6911 8.70788 12.7561 9 12.75C9.29212 12.7561 9.58134 12.6911 9.84268 12.5604C10.104 12.4297 10.3296 12.2374 10.5 12C10.6704 11.7627 10.896 11.5703 11.1573 11.4397C11.4187 11.309 11.7079 11.2439 12 11.25C12.2921 11.2439 12.5813 11.309 12.8427 11.4397C13.104 11.5703 13.3296 11.7627 13.5 12C13.6704 12.2374 13.896 12.4297 14.1573 12.5604C14.4187 12.6911 14.7079 12.7561 15 12.75C15.2921 12.7561 15.5813 12.6911 15.8427 12.5604C16.104 12.4297 16.3296 12.2374 16.5 12" stroke="#9B81E5" stroke-width="1.5" stroke-linecap="round" stroke-linejoin="round"/>
<path d="M11.25 9V3.375C11.25 3.07663 11.3685 2.79048 11.5795 2.5795C11.7905 2.36853 12.0766 2.25 12.375 2.25C12.6734 2.25 12.9595 2.36853 13.1705 2.5795C13.3815 2.79048 13.5 3.07663 13.5 3.375" stroke="#9B81E5" stroke-width="1.5" stroke-linecap="round" stroke-linejoin="round"/>
<path d="M6.75 9V3.375C6.75 3.07663 6.63147 2.79048 6.4205 2.5795C6.20952 2.36853 5.92337 2.25 5.625 2.25C5.32663 2.25 5.04048 2.36853 4.8295 2.5795C4.61853 2.79048 4.5 3.07663 4.5 3.375" stroke="#9B81E5" stroke-width="1.5" stroke-linecap="round" stroke-linejoin="round"/>
<path d="M11.25 3.75H6.75" stroke="#9B81E5" stroke-width="1.5" stroke-linecap="round" stroke-linejoin="round"/>
<path d="M6.75 7.5H11.25" stroke="#9B81E5" stroke-width="1.5" stroke-linecap="round" stroke-linejoin="round"/>
</g>
<defs>
<clipPath id="clip0_140_807">
<rect width="18" height="18" fill="white"/>
</clipPath>
</defs>
</svg>
