<svg width="114" height="114" viewBox="0 0 114 114" fill="none" xmlns="http://www.w3.org/2000/svg">
<path d="M74.955 9.5H39.045C21.09 9.5 16.625 14.2975 16.625 33.44V86.925C16.625 99.56 23.56 102.553 31.9675 93.5275L32.015 93.48C35.91 89.3475 41.8475 89.68 45.22 94.1925L50.0175 100.605C53.865 105.688 60.0875 105.688 63.935 100.605L68.7325 94.1925C72.1525 89.6325 78.09 89.3 81.985 93.48C90.44 102.505 97.3275 99.5125 97.3275 86.8775V33.44C97.375 14.2975 92.91 9.5 74.955 9.5ZM42.75 33.25C45.3625 33.25 47.5 35.3875 47.5 38C47.5 40.6125 45.41 42.75 42.75 42.75C40.09 42.75 38 40.6125 38 38C38 35.3875 40.09 33.25 42.75 33.25ZM71.25 66.5C68.59 66.5 66.5 64.3625 66.5 61.75C66.5 59.1375 68.6375 57 71.25 57C73.8625 57 76 59.1375 76 61.75C76 64.3625 73.91 66.5 71.25 66.5ZM75.525 36.0525L43.5575 68.02C42.845 68.7325 41.9425 69.065 41.04 69.065C40.1375 69.065 39.235 68.7325 38.5225 68.02C37.145 66.6425 37.145 64.3625 38.5225 62.985L70.49 31.0175C71.8675 29.64 74.1475 29.64 75.525 31.0175C76.9025 32.395 76.9025 34.675 75.525 36.0525Z" fill="white"/>
</svg>
