<svg width="20" height="20" viewBox="0 0 20 20" fill="none" xmlns="http://www.w3.org/2000/svg">
<path d="M9.17501 16.6834C13.3217 16.6834 16.6833 13.3218 16.6833 9.17508C16.6833 5.02834 13.3217 1.66675 9.17501 1.66675C5.02827 1.66675 1.66667 5.02834 1.66667 9.17508C1.66667 13.3218 5.02827 16.6834 9.17501 16.6834Z" fill="#246BFD"/>
<path d="M18.325 15.7917C18.05 15.2833 17.4667 15 16.6833 15C16.0917 15 15.5833 15.2417 15.2833 15.6583C14.9833 16.075 14.9167 16.6333 15.1 17.1917C15.4583 18.275 16.0833 18.5167 16.425 18.5583C16.475 18.5667 16.525 18.5667 16.5833 18.5667C16.95 18.5667 17.5167 18.4083 18.0667 17.5833C18.5083 16.9417 18.5917 16.3 18.325 15.7917Z" fill="#246BFD"/>
</svg>
