<svg width="20" height="20" viewBox="0 0 20 20" fill="none" xmlns="http://www.w3.org/2000/svg">
<path d="M16.75 7.68336C15.2417 7.68336 14.625 6.6167 15.375 5.30836C15.8083 4.55003 15.55 3.58336 14.7917 3.15003L13.35 2.32503C12.6917 1.93336 11.8417 2.1667 11.45 2.82503L11.3583 2.98336C10.6083 4.2917 9.37501 4.2917 8.61667 2.98336L8.52501 2.82503C8.15001 2.1667 7.30001 1.93336 6.64167 2.32503L5.20001 3.15003C4.44167 3.58336 4.18334 4.55836 4.61667 5.3167C5.37501 6.6167 4.75834 7.68336 3.25001 7.68336C2.38334 7.68336 1.66667 8.3917 1.66667 9.2667V10.7334C1.66667 11.6 2.37501 12.3167 3.25001 12.3167C4.75834 12.3167 5.37501 13.3834 4.61667 14.6917C4.18334 15.45 4.44167 16.4167 5.20001 16.85L6.64167 17.675C7.30001 18.0667 8.15001 17.8334 8.54167 17.175L8.63334 17.0167C9.38334 15.7084 10.6167 15.7084 11.375 17.0167L11.4667 17.175C11.8583 17.8334 12.7083 18.0667 13.3667 17.675L14.8083 16.85C15.5667 16.4167 15.825 15.4417 15.3917 14.6917C14.6333 13.3834 15.25 12.3167 16.7583 12.3167C17.625 12.3167 18.3417 11.6084 18.3417 10.7334V9.2667C18.3333 8.40003 17.625 7.68336 16.75 7.68336ZM10 12.7084C8.50834 12.7084 7.29167 11.4917 7.29167 10C7.29167 8.50836 8.50834 7.2917 10 7.2917C11.4917 7.2917 12.7083 8.50836 12.7083 10C12.7083 11.4917 11.4917 12.7084 10 12.7084Z" fill="#246BFD"/>
</svg>
