<svg width="47" height="56" viewBox="0 0 47 56" fill="none" xmlns="http://www.w3.org/2000/svg">
<path d="M41.5398 6.67354L26.621 1.08579C25.0749 0.516163 22.5523 0.516163 21.0061 1.08579L6.08739 6.67354C3.21214 7.75854 0.879395 11.122 0.879395 14.1872V36.1584C0.879395 38.3555 2.31702 41.2579 4.08014 42.5599L18.9989 53.7083C21.63 55.6884 25.9429 55.6884 28.574 53.7083L43.4928 42.5599C45.2559 41.2308 46.6935 38.3555 46.6935 36.1584V14.1872C46.7206 11.122 44.3879 7.75854 41.5398 6.67354ZM33.2395 21.8635L21.5758 33.5273C21.1689 33.9342 20.6535 34.124 20.1381 34.124C19.6228 34.124 19.1074 33.9342 18.7005 33.5273L14.3605 29.133C13.5739 28.3464 13.5739 27.0444 14.3605 26.2578C15.1471 25.4712 16.4491 25.4712 17.2358 26.2578L20.1653 29.1873L30.3914 18.9612C31.178 18.1745 32.48 18.1745 33.2666 18.9612C34.0533 19.7478 34.0533 21.0769 33.2395 21.8635Z" fill="white"/>
</svg>
