<svg width="114" height="109" viewBox="0 0 114 109" fill="none" xmlns="http://www.w3.org/2000/svg">
<path d="M23.75 71.25C13.2525 71.25 4.75 79.7525 4.75 90.25C4.75 93.8125 5.7475 97.185 7.505 100.035C10.7825 105.545 16.815 109.25 23.75 109.25C30.685 109.25 36.7175 105.545 39.995 100.035C41.7525 97.185 42.75 93.8125 42.75 90.25C42.75 79.7525 34.2475 71.25 23.75 71.25ZM33.1075 88.6825L22.99 98.04C22.325 98.6575 21.4225 98.99 20.5675 98.99C19.665 98.99 18.7625 98.6575 18.05 97.945L13.3475 93.2425C11.97 91.865 11.97 89.585 13.3475 88.2075C14.725 86.83 17.005 86.83 18.3825 88.2075L20.6625 90.4875L28.2625 83.4575C29.6875 82.1275 31.9675 82.2225 33.2975 83.6475C34.6275 85.0725 34.5325 87.3525 33.1075 88.6825Z" fill="white"/>
<path d="M102.125 59.375H90.25C85.025 59.375 80.75 63.65 80.75 68.875C80.75 74.1 85.025 78.375 90.25 78.375H102.125C103.455 78.375 104.5 77.33 104.5 76V61.75C104.5 60.42 103.455 59.375 102.125 59.375Z" fill="white"/>
<path d="M78.5175 25.6498C79.9425 27.0273 78.755 29.1648 76.76 29.1648L37.43 29.1173C35.15 29.1173 34.01 26.3623 35.625 24.7473L43.9375 16.3873C50.9675 9.40477 62.32 9.40477 69.35 16.3873L78.3275 25.4598C78.375 25.5073 78.47 25.6023 78.5175 25.6498Z" fill="white"/>
<path d="M103.883 88.635C100.985 98.42 92.625 104.5 81.225 104.5H50.35C48.4975 104.5 47.31 102.457 48.07 100.747C49.495 97.4225 50.3975 93.67 50.3975 90.25C50.3975 75.8575 38.665 64.125 24.2725 64.125C20.6625 64.125 17.1475 64.885 13.9175 66.31C12.16 67.07 10.0225 65.8825 10.0225 63.9825V57C10.0225 44.08 17.8125 35.055 29.925 33.535C31.1125 33.345 32.395 33.25 33.725 33.25H81.225C82.46 33.25 83.6475 33.2975 84.7875 33.4875C94.3825 34.58 101.318 40.4225 103.883 49.115C104.358 50.6825 103.217 52.25 101.602 52.25H90.725C80.4175 52.25 72.2475 61.655 74.48 72.3425C76.0475 80.1325 83.2675 85.5 91.2 85.5H101.602C103.265 85.5 104.358 87.115 103.883 88.635Z" fill="white"/>
</svg>
